<svg xmlns="http://www.w3.org/2000/svg" viewBox="0 0 172 172"><defs><style>.cls-1{fill:#fff;}</style></defs><g id="Layer_2" data-name="Layer 2"><g id="Layer_1-2" data-name="Layer 1"><rect class="cls-1" x="1" y="1" width="170" height="170" rx="35.9"/><path d="M135.1,2A34.94,34.94,0,0,1,170,36.9v98.2A34.94,34.94,0,0,1,135.1,170H36.9A34.94,34.94,0,0,1,2,135.1V36.9A34.94,34.94,0,0,1,36.9,2h98.2m0-2H36.9A36.9,36.9,0,0,0,0,36.9v98.2A36.9,36.9,0,0,0,36.9,172h98.2A36.9,36.9,0,0,0,172,135.1V36.9A36.9,36.9,0,0,0,135.1,0Z"/><circle cx="47.5" cy="51.5" r="7"/><path d="M47.5,45A6.5,6.5,0,1,1,41,51.5,6.51,6.51,0,0,1,47.5,45m0-1A7.5,7.5,0,1,0,55,51.5,7.5,7.5,0,0,0,47.5,44Z"/><circle cx="119.5" cy="125.5" r="7"/><path d="M119.5,119a6.5,6.5,0,1,1-6.5,6.5,6.51,6.51,0,0,1,6.5-6.5m0-1a7.5,7.5,0,1,0,7.5,7.5,7.5,7.5,0,0,0-7.5-7.5Z"/></g></g></svg>